<?xml version="1.0" standalone="no"?>
<!DOCTYPE svg PUBLIC "-//W3C//DTD SVG 20010904//EN"
 "http://www.w3.org/TR/2001/REC-SVG-20010904/DTD/svg10.dtd">
<svg version="1.0" xmlns="http://www.w3.org/2000/svg"
 width="1280.000000pt" height="1046.000000pt" viewBox="0 0 1280.000000 1046.000000"
 preserveAspectRatio="xMidYMid meet">
<metadata>
Created by potrace 1.15, written by Peter Selinger 2001-2017
</metadata>
<g transform="translate(0.000000,1046.000000) scale(0.100000,-0.100000)"
fill="#ffeb3b" stroke="none">
<path d="M3885 10436 c-253 -66 -416 -158 -895 -505 -231 -167 -217 -148 -219
-297 l-1 -91 -65 -28 c-301 -128 -572 -525 -613 -899 l-10 -85 -65 -71 c-112
-121 -167 -252 -222 -532 -42 -209 -72 -321 -115 -421 -21 -50 -46 -126 -55
-167 -23 -103 -67 -257 -125 -435 -112 -343 -154 -519 -171 -721 -9 -105 -14
-130 -31 -148 -57 -59 -72 -158 -44 -293 22 -106 26 -184 13 -232 l-12 -45
-105 -36 c-257 -90 -459 -217 -655 -414 -191 -192 -318 -385 -409 -622 -85
-222 -101 -362 -60 -524 16 -66 18 -102 14 -305 -10 -557 -5 -623 65 -763 34
-68 122 -167 176 -199 17 -10 34 -34 45 -62 33 -88 113 -239 182 -342 161
-241 391 -434 653 -549 47 -21 130 -61 185 -88 253 -127 602 -245 909 -307
311 -63 699 -71 985 -21 41 8 77 12 79 10 7 -6 -67 -126 -207 -334 -151 -224
-230 -370 -259 -480 -18 -68 -24 -252 -9 -267 16 -16 356 -8 470 11 214 35
426 106 646 215 383 191 714 442 1268 960 179 167 221 196 245 172 19 -19 12
-121 -10 -171 -31 -70 -255 -337 -502 -599 -242 -258 -615 -587 -693 -611 -24
-7 -67 -24 -95 -37 -45 -21 -53 -29 -53 -52 0 -42 17 -51 100 -51 72 0 84 3
176 49 184 90 284 171 634 516 135 133 273 265 308 293 67 55 176 132 188 132
4 0 4 -37 1 -82 -6 -96 -30 -167 -116 -350 -32 -69 -67 -151 -77 -183 l-18
-57 27 -24 c31 -26 92 -33 129 -13 34 18 71 109 224 552 25 72 77 196 115 274
l70 143 74 0 c127 0 126 -9 -39 -335 -111 -217 -152 -326 -166 -439 -16 -129
-4 -155 73 -156 54 0 63 13 111 162 61 185 156 379 239 484 68 86 161 168 214
190 81 34 153 3 153 -66 0 -44 -38 -153 -76 -218 -60 -102 -102 -290 -91 -407
10 -110 47 -172 122 -206 60 -28 65 -25 65 30 0 221 66 495 168 698 89 175
276 401 423 511 93 70 145 51 191 -70 13 -33 34 -73 48 -88 25 -27 30 -28 163
-35 174 -9 370 -2 422 16 32 11 53 31 105 101 138 185 204 224 325 193 46 -12
81 -13 193 -5 75 5 263 17 417 25 843 46 1251 112 1636 265 209 84 460 227
474 271 4 12 76 93 160 180 114 118 160 173 184 220 35 70 38 94 16 145 -13
32 -18 35 -42 29 -64 -15 -307 -144 -573 -305 -501 -302 -758 -411 -1026 -435
-38 -4 -134 -20 -214 -36 -309 -61 -570 -100 -805 -119 -136 -11 -530 -12
-588 -2 l-39 7 30 41 c58 80 131 106 347 124 75 6 157 17 183 24 26 7 182 50
347 95 569 156 706 202 930 311 231 112 415 248 542 402 90 109 103 186 41
245 -27 26 -36 28 -122 31 -183 7 -378 -67 -556 -210 -486 -392 -996 -640
-1495 -729 -168 -30 -442 -30 -605 -1 -100 18 -340 86 -340 96 0 2 64 60 143
127 1912 1657 3588 3440 4985 5303 l172 229 0 64 c0 80 -17 120 -69 165 -49
42 -146 76 -306 109 -153 31 -502 38 -694 15 -291 -36 -503 -86 -1111 -267
-543 -160 -558 -166 -765 -254 -566 -242 -1059 -492 -2013 -1021 -394 -219
-404 -224 -460 -224 -72 0 -181 18 -407 65 -165 34 -191 37 -310 33 -141 -4
-198 -18 -435 -111 -211 -82 -270 -92 -325 -59 -16 10 -36 30 -42 43 -7 13
-62 173 -122 354 -262 791 -530 1477 -1078 2760 -215 504 -317 723 -355 765
-72 77 -79 80 -211 80 -95 -1 -142 -6 -212 -24z m-109 -265 c40 -24 66 -82 94
-206 27 -123 29 -126 100 -200 71 -75 116 -162 187 -364 30 -86 69 -183 87
-216 18 -33 38 -82 45 -110 25 -99 86 -245 226 -540 214 -452 262 -592 271
-800 l5 -110 -61 65 c-246 262 -484 627 -698 1070 -93 192 -108 226 -319 705
-80 182 -161 364 -179 405 -40 89 -44 151 -14 210 46 91 179 138 256 91z
m-513 -415 c104 -51 161 -126 286 -378 61 -123 129 -247 152 -277 29 -38 48
-79 65 -137 76 -261 237 -585 447 -899 33 -49 154 -220 267 -380 332 -466 436
-628 549 -854 75 -148 105 -219 152 -360 54 -157 55 -151 -38 -151 -267 1
-566 149 -755 374 -44 52 -90 132 -187 325 -72 141 -148 292 -170 336 -23 44
-153 307 -289 585 -342 695 -506 1000 -726 1350 l-91 145 0 95 c0 86 3 101 30
155 19 37 43 69 65 83 31 21 44 23 111 20 57 -3 91 -12 132 -32z m1189 -306
c14 -11 44 -54 66 -97 61 -118 623 -1557 1037 -2654 67 -179 137 -350 153
-380 87 -153 134 -319 197 -691 56 -337 73 -405 141 -578 18 -47 49 -157 69
-245 20 -88 96 -401 170 -695 73 -294 156 -632 184 -750 109 -472 166 -820
142 -882 -11 -29 -41 -43 -75 -34 -22 5 -22 3 -78 211 -10 39 -55 223 -100
410 -123 519 -196 757 -307 1005 -40 88 -50 124 -64 225 -32 232 -88 443 -212
801 -279 800 -322 957 -355 1279 -23 217 -167 659 -465 1425 -278 716 -420
1131 -499 1460 -22 94 -46 201 -46 206 0 10 19 3 42 -16z m-1648 -229 c115
-79 198 -204 332 -497 135 -297 193 -394 293 -493 32 -31 60 -63 63 -71 31
-82 340 -776 407 -915 94 -195 234 -452 285 -524 64 -90 75 -110 92 -166 35
-122 1 -289 -74 -368 -69 -74 -177 -92 -279 -48 -50 22 -57 30 -164 194 -62
94 -219 342 -349 552 -502 808 -723 1129 -987 1440 -148 175 -150 178 -164
255 -15 88 -2 176 40 266 47 100 85 149 234 301 l139 141 44 -19 c25 -10 64
-32 88 -48z m-557 -1058 c17 -10 62 -57 100 -104 37 -47 151 -185 252 -307
295 -355 337 -414 570 -808 43 -72 159 -245 258 -385 251 -354 334 -483 413
-644 103 -211 141 -340 160 -537 11 -111 -2 -290 -25 -344 -20 -48 -70 -69
-128 -53 -100 27 -205 99 -362 250 -166 160 -288 305 -558 664 -379 503 -546
683 -822 890 -132 99 -203 174 -244 258 -49 99 -65 177 -64 307 1 127 18 226
64 365 54 161 193 429 237 455 28 16 114 12 149 -7z m9957 -44 c46 -13 86 -53
86 -87 0 -40 -371 -527 -739 -971 -253 -303 -403 -476 -735 -846 -406 -452
-590 -625 -664 -625 -66 0 -68 63 -6 205 132 302 312 558 754 1075 338 396
447 537 610 795 102 161 155 223 259 307 168 134 310 182 435 147z m-859 -133
c38 -16 52 -48 40 -93 -12 -52 -123 -268 -183 -358 -105 -157 -226 -297 -505
-586 -274 -283 -468 -497 -486 -534 -81 -172 -109 -224 -160 -292 -140 -190
-290 -296 -448 -318 -84 -11 -90 0 -37 75 264 378 530 886 773 1475 101 245
119 281 169 343 106 130 373 252 627 287 125 17 170 17 210 1z m-1072 -287
c15 -24 -13 -91 -77 -187 -48 -72 -85 -150 -290 -605 -209 -462 -379 -756
-571 -987 l-73 -87 -95 -31 c-119 -40 -200 -43 -258 -10 -22 12 -39 25 -39 28
0 18 42 169 64 228 59 163 128 292 316 592 212 337 309 518 359 672 60 181
202 285 520 379 105 31 129 32 144 8z m1981 -256 l-1 -63 -103 -127 c-294
-363 -596 -711 -1250 -1443 -228 -256 -479 -537 -557 -625 -77 -88 -187 -200
-244 -250 -235 -204 -759 -678 -1194 -1080 -464 -428 -1159 -1077 -1202 -1121
-64 -67 -139 -97 -167 -68 -21 20 -21 20 16 68 340 437 626 763 1028 1170 528
535 1038 979 1646 1431 127 94 147 116 983 1035 352 386 774 868 941 1073 44
54 60 67 80 65 24 -3 25 -6 24 -65z m-2942 -286 c-1 -58 -30 -124 -142 -322
-44 -77 -86 -160 -94 -183 -9 -24 -37 -67 -62 -95 -108 -120 -179 -246 -343
-604 -130 -287 -210 -430 -301 -540 -87 -105 -228 -218 -247 -199 -5 4 -8 80
-8 169 0 186 6 216 95 522 95 322 106 374 118 562 8 116 11 127 50 207 108
218 330 369 740 506 199 67 196 67 194 -23z m-7497 -491 c311 -186 670 -494
1018 -876 229 -251 970 -1137 1032 -1235 50 -78 87 -155 165 -350 80 -200 142
-330 189 -399 30 -44 31 -47 17 -80 -18 -42 -42 -56 -98 -56 -64 1 -114 29
-208 120 -121 118 -385 352 -568 504 -587 490 -1133 852 -1685 1116 l-156 75
0 85 c-1 259 32 612 75 806 34 153 99 344 118 344 6 0 51 -24 101 -54z m6271
-137 c20 -22 22 -59 15 -309 -9 -313 -300 -1198 -664 -2020 -175 -395 -488
-1047 -473 -985 3 11 18 70 35 130 232 870 305 1693 215 2413 l-15 123 41 70
c119 201 320 385 552 504 186 97 257 115 294 74z m-1121 -93 c54 -14 116 -44
155 -75 l25 -20 -39 -78 c-61 -125 -118 -196 -331 -413 -212 -215 -278 -291
-334 -379 l-35 -54 -32 35 c-17 19 -42 61 -55 94 -21 53 -24 74 -24 219 0 122
4 175 18 225 69 256 194 408 367 446 74 17 224 17 285 0z m-2390 -158 c151
-63 380 -175 556 -272 l137 -76 80 -177 c317 -706 533 -1408 857 -2788 48
-203 100 -404 116 -445 17 -41 33 -98 36 -126 5 -48 4 -53 -20 -69 -45 -29
-56 -18 -96 95 -82 233 -193 422 -496 845 -298 417 -374 546 -498 850 -137
337 -309 691 -521 1072 -60 110 -117 225 -131 270 -14 43 -54 132 -90 198
-138 253 -175 347 -175 450 0 67 15 119 53 183 36 60 21 61 192 -10z m1676 2
c38 -21 25 -72 -68 -255 -68 -138 -86 -182 -87 -218 -1 -44 -2 -46 -26 -40
-50 12 -81 38 -107 91 -23 47 -25 61 -21 137 8 152 85 262 198 284 63 12 88
13 111 1z m-1964 -526 c86 -50 153 -162 232 -389 60 -171 107 -283 175 -415
127 -247 120 -229 121 -307 0 -40 -5 -77 -10 -82 -14 -14 -136 58 -243 144
-221 179 -374 432 -404 670 -10 82 -10 110 4 189 13 81 61 216 76 216 3 0 25
-11 49 -26z m2746 -116 c27 -36 36 -194 36 -643 1 -650 -55 -1018 -212 -1393
l-31 -74 -17 24 c-25 31 -66 149 -79 222 -16 94 -12 313 11 541 35 355 26 565
-29 687 l-20 43 -23 -50 c-23 -48 -24 -62 -30 -360 -5 -285 -8 -315 -28 -370
-22 -61 -47 -102 -56 -94 -12 13 -75 256 -91 354 -25 151 -25 428 0 543 62
289 183 465 391 568 88 43 147 44 178 2z m2572 -72 c39 -10 87 -27 108 -38 36
-18 37 -21 32 -56 -38 -225 -150 -411 -357 -590 -54 -47 -189 -152 -299 -233
-183 -134 -213 -160 -347 -306 -81 -88 -253 -274 -383 -414 -130 -140 -281
-303 -334 -364 -394 -443 -689 -854 -865 -1206 -29 -56 -44 -77 -54 -73 -25 9
-68 73 -82 122 -29 96 -16 199 60 442 24 80 49 163 55 185 6 23 33 81 61 131
73 131 144 300 264 631 168 463 245 629 375 814 75 105 201 235 291 299 139
99 191 154 323 339 93 131 181 229 246 273 90 62 94 63 482 63 315 0 362 -2
424 -19z m-8331 -327 c40 -31 56 -71 56 -139 0 -74 -22 -125 -61 -145 -37 -19
-54 -19 -103 3 -23 10 -63 24 -89 31 -56 13 -91 36 -106 69 -35 75 19 142 147
182 78 25 124 25 156 -1z m439 -120 c301 -109 575 -251 885 -459 325 -218 559
-409 1197 -975 427 -380 652 -570 867 -734 169 -128 410 -292 546 -370 51 -30
91 -55 90 -57 -4 -4 -262 48 -348 71 -254 65 -586 189 -866 325 -453 218 -891
494 -1579 990 -176 127 -422 304 -547 393 -166 118 -230 170 -239 192 -7 17
-50 96 -96 176 -45 80 -94 175 -108 212 -40 108 -32 207 23 270 8 9 19 17 24
17 5 0 73 -23 151 -51z m-798 -176 c365 -114 635 -419 653 -737 4 -76 3 -88
-10 -84 -36 14 -253 71 -499 132 -266 65 -484 132 -590 180 -55 26 -57 28 -63
74 -21 165 79 355 234 442 51 29 60 30 125 25 38 -4 105 -18 150 -32z m3394
-217 c424 -344 826 -830 1286 -1556 146 -231 585 -953 582 -957 -6 -5 -244
114 -347 175 -52 30 -221 139 -375 242 -312 208 -439 287 -565 350 -201 101
-278 216 -386 577 -65 215 -109 323 -233 572 -139 277 -173 398 -151 534 12
75 44 157 61 157 7 0 64 -42 128 -94z m-3565 -471 c38 -8 92 -28 120 -45 120
-71 206 -100 526 -175 252 -60 369 -114 476 -220 51 -51 81 -91 107 -145 24
-49 51 -86 77 -108 82 -68 108 -180 63 -267 -30 -58 -101 -119 -165 -143 l-56
-21 -118 40 c-397 132 -861 210 -1357 226 l-197 6 -9 36 c-53 201 -65 282 -66
416 0 128 15 194 61 266 43 68 124 120 217 138 69 14 247 12 321 -4z m1521
-368 c140 -84 298 -191 607 -409 539 -380 726 -492 1063 -633 88 -37 261 -115
385 -172 558 -260 810 -346 1091 -371 73 -7 98 -6 114 5 11 7 34 13 53 13 63
0 105 -78 65 -122 -28 -31 -291 -23 -533 18 -457 77 -902 255 -1665 665 -126
68 -248 130 -270 137 -126 43 -282 136 -502 298 -65 48 -160 116 -212 151 -62
41 -103 77 -121 105 -31 48 -61 77 -172 166 -138 112 -178 161 -178 224 0 70
4 71 93 26 45 -22 127 -68 182 -101z m-1140 -691 c243 -51 500 -160 695 -293
161 -110 212 -147 222 -166 26 -47 -34 -127 -95 -127 -18 0 -52 8 -77 17 -35
13 -80 17 -205 17 -197 0 -282 -15 -631 -116 -204 -58 -263 -71 -324 -72 -98
-1 -115 11 -219 163 -75 108 -136 171 -169 171 -15 0 -56 56 -76 104 -21 50
-21 138 0 182 20 41 74 91 123 112 83 36 140 42 391 38 217 -3 259 -7 365 -30z
m1309 4 c111 -38 170 -75 366 -230 147 -116 230 -175 300 -210 24 -12 66 -37
92 -56 27 -18 79 -47 116 -65 64 -30 107 -45 412 -139 128 -40 300 -115 300
-131 0 -4 -24 -1 -52 6 -200 52 -469 67 -1008 59 l-446 -7 -16 25 c-9 13 -73
87 -143 164 -207 226 -266 326 -251 429 8 51 59 114 126 157 40 26 51 29 98
23 30 -4 77 -15 106 -25z m-332 -748 c74 -30 106 -56 129 -106 32 -71 28 -79
-59 -119 -43 -20 -168 -63 -278 -97 -152 -46 -232 -77 -338 -131 -176 -88
-238 -101 -359 -77 -126 26 -235 86 -333 183 -92 90 -122 138 -103 161 6 8 44
36 83 62 172 115 411 152 956 148 228 -2 249 -4 302 -24z m1293 -112 c192 -17
403 -46 820 -115 215 -35 449 -72 520 -81 72 -10 136 -23 143 -29 17 -15 1
-57 -30 -79 -31 -22 -41 -20 -79 11 l-32 27 -311 0 c-328 0 -485 -10 -784 -50
-156 -21 -475 -79 -549 -100 -16 -4 -23 -1 -28 15 -3 11 -40 58 -82 103 -73
79 -121 158 -108 177 3 5 58 30 123 56 64 25 128 52 142 60 30 17 94 18 255 5z
m-837 -156 c12 -8 47 -49 78 -91 55 -74 57 -76 178 -133 137 -65 156 -79 156
-119 0 -35 -10 -43 -85 -65 -33 -10 -145 -53 -250 -96 -251 -103 -346 -136
-465 -160 -190 -39 -332 -22 -495 59 -55 27 -128 60 -162 71 -34 12 -72 33
-85 47 -43 46 -20 63 247 179 196 86 474 200 750 307 52 21 105 21 133 1z
m1895 -185 c50 -14 65 -44 43 -87 -42 -81 -181 -172 -267 -174 -33 -1 -58 -11
-99 -38 -146 -98 -311 -150 -473 -150 -60 0 -75 -4 -103 -25 -94 -72 -217 -71
-312 2 -46 34 -84 119 -80 175 l3 42 220 63 c441 127 658 175 861 192 145 12
165 12 207 0z m-1426 -371 c129 -47 115 -138 -32 -208 -85 -40 -158 -53 -262
-48 -75 3 -97 8 -136 31 -31 19 -47 35 -47 48 0 49 56 112 125 140 59 24 250
67 275 61 14 -2 49 -13 77 -24z"/>
</g>
</svg>
